<mxfile host="app.diagrams.net" agent="Mozilla/5.0 (Windows NT 10.0; Win64; x64) AppleWebKit/537.36 (KHTML, like Gecko) Chrome/133.0.0.0 Safari/537.36" version="26.0.16">
  <diagram name="Página-1" id="wYABZt_R9NSGHeKH_Uqa">
    <mxGraphModel dx="459" dy="475" grid="1" gridSize="10" guides="1" tooltips="1" connect="1" arrows="1" fold="1" page="1" pageScale="1" pageWidth="827" pageHeight="1169" math="0" shadow="0">
      <root>
        <mxCell id="0" />
        <mxCell id="1" parent="0" />
        <mxCell id="2" value="&lt;&lt;abstract&gt;&gt;&#xa;User" style="swimlane;fontStyle=1;align=center;verticalAlign=top;childLayout=stackLayout;horizontal=1;startSize=62.25;horizontalStack=0;resizeParent=1;resizeParentMax=0;resizeLast=0;collapsible=0;marginBottom=0;" parent="1" vertex="1">
          <mxGeometry x="241" y="250" width="249" height="310" as="geometry" />
        </mxCell>
        <mxCell id="VKXGssWcHvbLUp1OGxKl-60" value="- nome: String&#xa;- avalicaoDoUsuario: double&#xa;- descricao: String&#xa;- &lt;&lt;constant&gt;&gt;USERID: int&#xa;- loginInfos: Login&#xa;- arquivos: ArrayList&lt;File&gt;&#xa;- gruposDoUsuario: ArrayList&lt;Grupo&gt;&#xa;- directMesages: ArrayList&lt;DirectMessage&gt;" style="text;strokeColor=none;fillColor=none;align=left;verticalAlign=top;spacingLeft=4;spacingRight=4;overflow=hidden;rotatable=0;points=[[0,0.5],[1,0.5]];portConstraint=eastwest;" parent="2" vertex="1">
          <mxGeometry y="62.25" width="249" height="127.75" as="geometry" />
        </mxCell>
        <mxCell id="3" style="line;strokeWidth=1;fillColor=none;align=left;verticalAlign=middle;spacingTop=-1;spacingLeft=3;spacingRight=3;rotatable=0;labelPosition=right;points=[];portConstraint=eastwest;strokeColor=inherit;" parent="2" vertex="1">
          <mxGeometry y="190" width="249" height="2.25" as="geometry" />
        </mxCell>
        <mxCell id="4" value="+ login(): void&#xa;+ logout(): void&#xa;+ adicionarArquivoProprio(): void&#xa;+ removerArquivoProprio(): void&#xa;+ modificarArquivoProprio(): void&#xa;+ avaliarUsuario(): void&#xa;+ avaliarArquivo(): void&#xa;" style="text;strokeColor=none;fillColor=none;align=left;verticalAlign=top;spacingLeft=4;spacingRight=4;overflow=hidden;rotatable=0;points=[[0,0.5],[1,0.5]];portConstraint=eastwest;" parent="2" vertex="1">
          <mxGeometry y="192.25" width="249" height="117.75" as="geometry" />
        </mxCell>
        <mxCell id="6" value="Aluno" style="swimlane;fontStyle=1;align=center;verticalAlign=top;childLayout=stackLayout;horizontal=1;startSize=40.57142857142857;horizontalStack=0;resizeParent=1;resizeParentMax=0;resizeLast=0;collapsible=0;marginBottom=0;" parent="1" vertex="1">
          <mxGeometry x="8" y="552.28" width="189" height="100.00142857142856" as="geometry" />
        </mxCell>
        <mxCell id="7" style="line;strokeWidth=1;fillColor=none;align=left;verticalAlign=middle;spacingTop=-1;spacingLeft=3;spacingRight=3;rotatable=0;labelPosition=right;points=[];portConstraint=eastwest;strokeColor=inherit;" parent="6" vertex="1">
          <mxGeometry y="40.57142857142857" width="189" height="8" as="geometry" />
        </mxCell>
        <mxCell id="9" value="- matricula: int&#xa;- tipoAssinatura: Assinatura&#xa;" style="text;strokeColor=none;fillColor=none;align=left;verticalAlign=top;spacingLeft=4;spacingRight=4;overflow=hidden;rotatable=0;points=[[0,0.5],[1,0.5]];portConstraint=eastwest;" parent="6" vertex="1">
          <mxGeometry y="48.57142857142857" width="189" height="51.43" as="geometry" />
        </mxCell>
        <mxCell id="10" value="Moderador" style="swimlane;fontStyle=1;align=center;verticalAlign=top;childLayout=stackLayout;horizontal=1;startSize=47.2;horizontalStack=0;resizeParent=1;resizeParentMax=0;resizeLast=0;collapsible=0;marginBottom=0;" parent="1" vertex="1">
          <mxGeometry x="244.5" y="730" width="213" height="160" as="geometry" />
        </mxCell>
        <mxCell id="11" style="line;strokeWidth=1;fillColor=none;align=left;verticalAlign=middle;spacingTop=-1;spacingLeft=3;spacingRight=3;rotatable=0;labelPosition=right;points=[];portConstraint=eastwest;strokeColor=inherit;" parent="10" vertex="1">
          <mxGeometry y="47.2" width="213" height="8" as="geometry" />
        </mxCell>
        <mxCell id="12" value="- nivel&#xa;+ alertarUsuario(): void&#xa;+ banirUsuario(): void&#xa;+ removerArquivosDeUsuarios(): void&#xa;+ modificarArquivoDeUsuario(): void" style="text;strokeColor=none;fillColor=none;align=left;verticalAlign=top;spacingLeft=4;spacingRight=4;overflow=hidden;rotatable=0;points=[[0,0.5],[1,0.5]];portConstraint=eastwest;" parent="10" vertex="1">
          <mxGeometry y="55.2" width="213" height="104.8" as="geometry" />
        </mxCell>
        <mxCell id="13" value="File" style="swimlane;fontStyle=1;align=center;verticalAlign=top;childLayout=stackLayout;horizontal=1;startSize=35.55555555555556;horizontalStack=0;resizeParent=1;resizeParentMax=0;resizeLast=0;collapsible=0;marginBottom=0;" parent="1" vertex="1">
          <mxGeometry x="485" y="600" width="155" height="129.99555555555554" as="geometry" />
        </mxCell>
        <mxCell id="14" value="- nome: String&#xa;- &lt;&lt;constant&gt;&gt;FILEID: int&#xa;- tipo: FileType&#xa;- autor: User&#xa;- avaliação: double" style="text;strokeColor=none;fillColor=none;align=left;verticalAlign=top;spacingLeft=4;spacingRight=4;overflow=hidden;rotatable=0;points=[[0,0.5],[1,0.5]];portConstraint=eastwest;" parent="13" vertex="1">
          <mxGeometry y="35.55555555555556" width="155" height="94.44" as="geometry" />
        </mxCell>
        <mxCell id="18" value="&lt;&lt;interface&gt;&gt;&#xa;SystemMethods" style="swimlane;fontStyle=1;align=center;verticalAlign=top;childLayout=stackLayout;horizontal=1;startSize=71;horizontalStack=0;resizeParent=1;resizeParentMax=0;resizeLast=0;collapsible=0;marginBottom=0;" parent="1" vertex="1">
          <mxGeometry x="934" y="40" width="196" height="150" as="geometry" />
        </mxCell>
        <mxCell id="19" style="line;strokeWidth=1;fillColor=none;align=left;verticalAlign=middle;spacingTop=-1;spacingLeft=3;spacingRight=3;rotatable=0;labelPosition=right;points=[];portConstraint=eastwest;strokeColor=inherit;" parent="18" vertex="1">
          <mxGeometry y="71" width="196" height="8" as="geometry" />
        </mxCell>
        <mxCell id="20" value="+ userRegistration(): void&#xa;+ fileStorage(): void&#xa;+ acessRanking(): void&#xa;+ acessGroups(): void" style="text;strokeColor=none;fillColor=none;align=left;verticalAlign=top;spacingLeft=4;spacingRight=4;overflow=hidden;rotatable=0;points=[[0,0.5],[1,0.5]];portConstraint=eastwest;" parent="18" vertex="1">
          <mxGeometry y="79" width="196" height="71" as="geometry" />
        </mxCell>
        <mxCell id="29" value="System" style="swimlane;fontStyle=1;align=center;verticalAlign=top;childLayout=stackLayout;horizontal=1;startSize=40.57142857142857;horizontalStack=0;resizeParent=1;resizeParentMax=0;resizeLast=0;collapsible=0;marginBottom=0;" parent="1" vertex="1">
          <mxGeometry x="570" y="220" width="186" height="150.00142857142856" as="geometry" />
        </mxCell>
        <mxCell id="VKXGssWcHvbLUp1OGxKl-57" value="- users: ArrayList&lt;User&gt;" style="text;strokeColor=none;fillColor=none;align=left;verticalAlign=top;spacingLeft=4;spacingRight=4;overflow=hidden;rotatable=0;points=[[0,0.5],[1,0.5]];portConstraint=eastwest;" parent="29" vertex="1">
          <mxGeometry y="40.57142857142857" width="186" height="29.43" as="geometry" />
        </mxCell>
        <mxCell id="30" style="line;strokeWidth=1;fillColor=none;align=left;verticalAlign=middle;spacingTop=-1;spacingLeft=3;spacingRight=3;rotatable=0;labelPosition=right;points=[];portConstraint=eastwest;strokeColor=inherit;" parent="29" vertex="1">
          <mxGeometry y="70.00142857142856" width="186" height="10" as="geometry" />
        </mxCell>
        <mxCell id="31" value="+ userRegistration(): void&#xa;+ fileStorage(): void&#xa;+ acessRanking(): void&#xa;+ acessGroups(): void" style="text;strokeColor=none;fillColor=none;align=left;verticalAlign=top;spacingLeft=4;spacingRight=4;overflow=hidden;rotatable=0;points=[[0,0.5],[1,0.5]];portConstraint=eastwest;" parent="29" vertex="1">
          <mxGeometry y="80.00142857142856" width="186" height="70" as="geometry" />
        </mxCell>
        <mxCell id="38" value="" style="startArrow=block;startSize=16;startFill=0;endArrow=none;exitX=0;exitY=0.68;entryX=0.5;entryY=0;" parent="1" source="2" target="6" edge="1">
          <mxGeometry relative="1" as="geometry" />
        </mxCell>
        <mxCell id="39" value="" style="curved=1;startArrow=block;startSize=16;startFill=0;endArrow=none;exitX=0.5;exitY=1;entryX=0.5;entryY=0;" parent="1" source="2" target="10" edge="1">
          <mxGeometry relative="1" as="geometry">
            <Array as="points" />
          </mxGeometry>
        </mxCell>
        <mxCell id="40" value="" style="startArrow=diamondThin;startSize=14;startFill=1;endArrow=none;entryX=0.5;entryY=0;exitX=1;exitY=0.169;exitDx=0;exitDy=0;exitPerimeter=0;" parent="1" source="4" target="13" edge="1">
          <mxGeometry relative="1" as="geometry">
            <mxPoint x="460" y="330" as="sourcePoint" />
          </mxGeometry>
        </mxCell>
        <mxCell id="42" value="0*" style="edgeLabel;resizable=0;labelBackgroundColor=none;fontSize=12;align=right;verticalAlign=bottom;" parent="40" vertex="1">
          <mxGeometry x="1" relative="1" as="geometry">
            <mxPoint x="22" as="offset" />
          </mxGeometry>
        </mxCell>
        <mxCell id="P-VyBrQE4UEn-uHLViO6-44" value="1...*" style="text;html=1;align=center;verticalAlign=middle;resizable=0;points=[];autosize=1;strokeColor=none;fillColor=none;" parent="1" vertex="1">
          <mxGeometry x="490" y="253" width="40" height="30" as="geometry" />
        </mxCell>
        <mxCell id="u4g5ZGn02v9a-J7chSun-45" value="&lt;&lt;Enum&gt;&gt;&#xa;Assinatura" style="swimlane;fontStyle=1;align=center;verticalAlign=top;childLayout=stackLayout;horizontal=1;startSize=55.199999999999996;horizontalStack=0;resizeParent=1;resizeParentMax=0;resizeLast=0;collapsible=0;marginBottom=0;" parent="1" vertex="1">
          <mxGeometry x="8" y="380.00000000000006" width="95" height="100" as="geometry" />
        </mxCell>
        <mxCell id="u4g5ZGn02v9a-J7chSun-46" value="PADRAO&#xa;PREMIUM" style="text;strokeColor=none;fillColor=none;align=left;verticalAlign=top;spacingLeft=4;spacingRight=4;overflow=hidden;rotatable=0;points=[[0,0.5],[1,0.5]];portConstraint=eastwest;" parent="u4g5ZGn02v9a-J7chSun-45" vertex="1">
          <mxGeometry y="55.199999999999996" width="95" height="34.8" as="geometry" />
        </mxCell>
        <mxCell id="u4g5ZGn02v9a-J7chSun-49" style="line;strokeWidth=1;fillColor=none;align=left;verticalAlign=middle;spacingTop=-1;spacingLeft=3;spacingRight=3;rotatable=0;labelPosition=right;points=[];portConstraint=eastwest;strokeColor=inherit;" parent="u4g5ZGn02v9a-J7chSun-45" vertex="1">
          <mxGeometry y="90" width="95" height="10" as="geometry" />
        </mxCell>
        <mxCell id="u4g5ZGn02v9a-J7chSun-50" value="Main" style="swimlane;fontStyle=1;align=center;verticalAlign=top;childLayout=stackLayout;horizontal=1;startSize=26;horizontalStack=0;resizeParent=1;resizeParentMax=0;resizeLast=0;collapsible=1;marginBottom=0;whiteSpace=wrap;html=1;" parent="1" vertex="1">
          <mxGeometry x="570" y="20" width="197" height="80" as="geometry" />
        </mxCell>
        <mxCell id="u4g5ZGn02v9a-J7chSun-52" value="" style="line;strokeWidth=1;fillColor=none;align=left;verticalAlign=middle;spacingTop=-1;spacingLeft=3;spacingRight=3;rotatable=0;labelPosition=right;points=[];portConstraint=eastwest;strokeColor=inherit;" parent="u4g5ZGn02v9a-J7chSun-50" vertex="1">
          <mxGeometry y="26" width="197" height="8" as="geometry" />
        </mxCell>
        <mxCell id="u4g5ZGn02v9a-J7chSun-53" value="&lt;div&gt;+ &amp;lt;&amp;lt;static&amp;gt;&amp;gt;connectSystem(): void&lt;/div&gt;&lt;div&gt;+ &amp;lt;&amp;lt;static&amp;gt;&amp;gt;main(): void&lt;/div&gt;" style="text;strokeColor=none;fillColor=none;align=left;verticalAlign=top;spacingLeft=4;spacingRight=4;overflow=hidden;rotatable=0;points=[[0,0.5],[1,0.5]];portConstraint=eastwest;whiteSpace=wrap;html=1;" parent="u4g5ZGn02v9a-J7chSun-50" vertex="1">
          <mxGeometry y="34" width="197" height="46" as="geometry" />
        </mxCell>
        <mxCell id="u4g5ZGn02v9a-J7chSun-57" value="" style="endArrow=diamondThin;endFill=1;endSize=24;html=1;rounded=0;fontSize=12;curved=1;exitX=0.032;exitY=0.111;exitDx=0;exitDy=0;exitPerimeter=0;entryX=0;entryY=0.25;entryDx=0;entryDy=0;" parent="1" source="P-VyBrQE4UEn-uHLViO6-44" target="29" edge="1">
          <mxGeometry width="160" relative="1" as="geometry">
            <mxPoint x="470" y="220" as="sourcePoint" />
            <mxPoint x="570" y="220" as="targetPoint" />
          </mxGeometry>
        </mxCell>
        <mxCell id="u4g5ZGn02v9a-J7chSun-58" value="" style="endArrow=diamondThin;endFill=0;endSize=24;html=1;rounded=0;fontSize=12;curved=1;exitX=0.5;exitY=0;exitDx=0;exitDy=0;entryX=0.465;entryY=1;entryDx=0;entryDy=0;entryPerimeter=0;" parent="1" source="29" target="u4g5ZGn02v9a-J7chSun-53" edge="1">
          <mxGeometry width="160" relative="1" as="geometry">
            <mxPoint x="638" y="120" as="sourcePoint" />
            <mxPoint x="670" y="120" as="targetPoint" />
          </mxGeometry>
        </mxCell>
        <mxCell id="u4g5ZGn02v9a-J7chSun-60" value="Ranking" style="swimlane;fontStyle=1;align=center;verticalAlign=top;childLayout=stackLayout;horizontal=1;startSize=26;horizontalStack=0;resizeParent=1;resizeParentMax=0;resizeLast=0;collapsible=1;marginBottom=0;whiteSpace=wrap;html=1;" parent="1" vertex="1">
          <mxGeometry x="934" y="220" width="240" height="140" as="geometry" />
        </mxCell>
        <mxCell id="u4g5ZGn02v9a-J7chSun-61" value="- podio: User[3]&lt;div&gt;&lt;span style=&quot;text-wrap-mode: nowrap;&quot;&gt;- usuariosOrdenados: ArrayList&amp;lt;User&amp;gt;&lt;/span&gt;&lt;br style=&quot;padding: 0px; margin: 0px; text-wrap-mode: nowrap;&quot;&gt;&lt;/div&gt;" style="text;strokeColor=none;fillColor=none;align=left;verticalAlign=top;spacingLeft=4;spacingRight=4;overflow=hidden;rotatable=0;points=[[0,0.5],[1,0.5]];portConstraint=eastwest;whiteSpace=wrap;html=1;" parent="u4g5ZGn02v9a-J7chSun-60" vertex="1">
          <mxGeometry y="26" width="240" height="44" as="geometry" />
        </mxCell>
        <mxCell id="u4g5ZGn02v9a-J7chSun-62" value="" style="line;strokeWidth=1;fillColor=none;align=left;verticalAlign=middle;spacingTop=-1;spacingLeft=3;spacingRight=3;rotatable=0;labelPosition=right;points=[];portConstraint=eastwest;strokeColor=inherit;" parent="u4g5ZGn02v9a-J7chSun-60" vertex="1">
          <mxGeometry y="70" width="240" height="8" as="geometry" />
        </mxCell>
        <mxCell id="u4g5ZGn02v9a-J7chSun-63" value="+ mostrarUsuariosMaisArquivos(): void&lt;div&gt;+ mostrarUsuariosMelhorAvaliados(): void&lt;/div&gt;&lt;div&gt;+ premiar(): void&lt;/div&gt;" style="text;strokeColor=none;fillColor=none;align=left;verticalAlign=top;spacingLeft=4;spacingRight=4;overflow=hidden;rotatable=0;points=[[0,0.5],[1,0.5]];portConstraint=eastwest;whiteSpace=wrap;html=1;" parent="u4g5ZGn02v9a-J7chSun-60" vertex="1">
          <mxGeometry y="78" width="240" height="62" as="geometry" />
        </mxCell>
        <mxCell id="VKXGssWcHvbLUp1OGxKl-43" value="" style="endArrow=diamondThin;endFill=1;endSize=24;html=1;rounded=0;entryX=1.011;entryY=0.116;entryDx=0;entryDy=0;entryPerimeter=0;exitX=0;exitY=0;exitDx=0;exitDy=0;" parent="1" source="u4g5ZGn02v9a-J7chSun-60" target="VKXGssWcHvbLUp1OGxKl-57" edge="1">
          <mxGeometry width="160" relative="1" as="geometry">
            <mxPoint x="917.95" y="150" as="sourcePoint" />
            <mxPoint x="755.9959999999999" y="224.42908857142834" as="targetPoint" />
          </mxGeometry>
        </mxCell>
        <mxCell id="VKXGssWcHvbLUp1OGxKl-44" value="" style="endArrow=diamondThin;endFill=0;endSize=24;html=1;rounded=0;exitX=1.004;exitY=0.143;exitDx=0;exitDy=0;exitPerimeter=0;entryX=0.014;entryY=0.109;entryDx=0;entryDy=0;entryPerimeter=0;" parent="1" source="13" target="VKXGssWcHvbLUp1OGxKl-52" edge="1">
          <mxGeometry width="160" relative="1" as="geometry">
            <mxPoint x="660" y="492" as="sourcePoint" />
            <mxPoint x="732" y="491.6" as="targetPoint" />
          </mxGeometry>
        </mxCell>
        <mxCell id="VKXGssWcHvbLUp1OGxKl-45" value="" style="endArrow=diamondThin;endFill=0;endSize=24;html=1;rounded=0;exitX=0.25;exitY=0;exitDx=0;exitDy=0;entryX=0.5;entryY=1;entryDx=0;entryDy=0;" parent="1" source="6" target="u4g5ZGn02v9a-J7chSun-45" edge="1">
          <mxGeometry width="160" relative="1" as="geometry">
            <mxPoint x="80" y="360" as="sourcePoint" />
            <mxPoint x="160" y="435.6" as="targetPoint" />
          </mxGeometry>
        </mxCell>
        <mxCell id="VKXGssWcHvbLUp1OGxKl-47" value="Login" style="swimlane;fontStyle=1;align=center;verticalAlign=top;childLayout=stackLayout;horizontal=1;startSize=26;horizontalStack=0;resizeParent=1;resizeParentMax=0;resizeLast=0;collapsible=1;marginBottom=0;whiteSpace=wrap;html=1;" parent="1" vertex="1">
          <mxGeometry y="200" width="160" height="140" as="geometry" />
        </mxCell>
        <mxCell id="VKXGssWcHvbLUp1OGxKl-48" value="- email: String&lt;br&gt;- senha: String&lt;div&gt;- infoSeguranca: String&lt;/div&gt;" style="text;strokeColor=none;fillColor=none;align=left;verticalAlign=top;spacingLeft=4;spacingRight=4;overflow=hidden;rotatable=0;points=[[0,0.5],[1,0.5]];portConstraint=eastwest;whiteSpace=wrap;html=1;" parent="VKXGssWcHvbLUp1OGxKl-47" vertex="1">
          <mxGeometry y="26" width="160" height="54" as="geometry" />
        </mxCell>
        <mxCell id="VKXGssWcHvbLUp1OGxKl-49" value="" style="line;strokeWidth=1;fillColor=none;align=left;verticalAlign=middle;spacingTop=-1;spacingLeft=3;spacingRight=3;rotatable=0;labelPosition=right;points=[];portConstraint=eastwest;strokeColor=inherit;" parent="VKXGssWcHvbLUp1OGxKl-47" vertex="1">
          <mxGeometry y="80" width="160" height="10" as="geometry" />
        </mxCell>
        <mxCell id="VKXGssWcHvbLUp1OGxKl-59" value="- criptografar(): String&lt;div&gt;- descriptografar(): String&lt;/div&gt;" style="text;strokeColor=none;fillColor=none;align=left;verticalAlign=top;spacingLeft=4;spacingRight=4;overflow=hidden;rotatable=0;points=[[0,0.5],[1,0.5]];portConstraint=eastwest;whiteSpace=wrap;html=1;" parent="VKXGssWcHvbLUp1OGxKl-47" vertex="1">
          <mxGeometry y="90" width="160" height="50" as="geometry" />
        </mxCell>
        <mxCell id="VKXGssWcHvbLUp1OGxKl-51" value="" style="endArrow=diamondThin;endFill=1;endSize=24;html=1;rounded=0;entryX=0.001;entryY=0.08;entryDx=0;entryDy=0;entryPerimeter=0;exitX=1;exitY=0.5;exitDx=0;exitDy=0;" parent="1" source="VKXGssWcHvbLUp1OGxKl-48" target="2" edge="1">
          <mxGeometry width="160" relative="1" as="geometry">
            <mxPoint x="169.14" y="69.16" as="sourcePoint" />
            <mxPoint x="255.9999999999999" y="160.00000000000003" as="targetPoint" />
          </mxGeometry>
        </mxCell>
        <mxCell id="VKXGssWcHvbLUp1OGxKl-52" value="&lt;&lt;Enum&gt;&gt;&#xa;Tipos_arquivos" style="swimlane;fontStyle=1;align=center;verticalAlign=top;childLayout=stackLayout;horizontal=1;startSize=55.199999999999996;horizontalStack=0;resizeParent=1;resizeParentMax=0;resizeLast=0;collapsible=0;marginBottom=0;" parent="1" vertex="1">
          <mxGeometry x="700" y="585" width="100" height="348" as="geometry" />
        </mxCell>
        <mxCell id="VKXGssWcHvbLUp1OGxKl-53" value="TXT&#xa;PDF&#xa;PPTX&#xa;WORD&#xa;PNG&#xa;XML&#xa;XLS&#xa;XLSX&#xa;PY&#xa;JAVA&#xa;C&#xa;H&#xa;CPP&#xa;CS&#xa;JS&#xa;PHP&#xa;HTML&#xa;CSS&#xa;PL" style="text;strokeColor=none;fillColor=none;align=left;verticalAlign=top;spacingLeft=4;spacingRight=4;overflow=hidden;rotatable=0;points=[[0,0.5],[1,0.5]];portConstraint=eastwest;" parent="VKXGssWcHvbLUp1OGxKl-52" vertex="1">
          <mxGeometry y="55.199999999999996" width="100" height="274.8" as="geometry" />
        </mxCell>
        <mxCell id="VKXGssWcHvbLUp1OGxKl-55" style="line;strokeWidth=1;fillColor=none;align=left;verticalAlign=middle;spacingTop=-1;spacingLeft=3;spacingRight=3;rotatable=0;labelPosition=right;points=[];portConstraint=eastwest;strokeColor=inherit;" parent="VKXGssWcHvbLUp1OGxKl-52" vertex="1">
          <mxGeometry y="330" width="100" height="18" as="geometry" />
        </mxCell>
        <mxCell id="VKXGssWcHvbLUp1OGxKl-56" value="&lt;span style=&quot;color: rgba(0, 0, 0, 0); font-family: monospace; font-size: 0px; text-align: start;&quot;&gt;%3CmxGraphModel%3E%3Croot%3E%3CmxCell%20id%3D%220%22%2F%3E%3CmxCell%20id%3D%221%22%20parent%3D%220%22%2F%3E%3CmxCell%20id%3D%222%22%20value%3D%22%2B%20userRegistration()%3A%20void%26%2310%3B%2B%20fileStorage()%3A%20void%26%2310%3B%2B%20acessRanking()%3A%20void%22%20style%3D%22text%3BstrokeColor%3Dnone%3BfillColor%3Dnone%3Balign%3Dleft%3BverticalAlign%3Dtop%3BspacingLeft%3D4%3BspacingRight%3D4%3Boverflow%3Dhidden%3Brotatable%3D0%3Bpoints%3D%5B%5B0%2C0.5%5D%2C%5B1%2C0.5%5D%5D%3BportConstraint%3Deastwest%3B%22%20vertex%3D%221%22%20parent%3D%221%22%3E%3CmxGeometry%20x%3D%22570%22%20y%3D%22280.00142857142856%22%20width%3D%22186%22%20height%3D%2271.43%22%20as%3D%22geometry%22%2F%3E%3C%2FmxCell%3E%3C%2Froot%3E%3C%2FmxGraphModel%3E&lt;/span&gt;" style="text;html=1;align=center;verticalAlign=middle;resizable=0;points=[];autosize=1;strokeColor=none;fillColor=none;" parent="1" vertex="1">
          <mxGeometry x="620" y="198" width="20" height="30" as="geometry" />
        </mxCell>
        <mxCell id="VKXGssWcHvbLUp1OGxKl-58" value="" style="endArrow=block;dashed=1;endFill=0;endSize=12;html=1;rounded=0;exitX=1;exitY=0;exitDx=0;exitDy=0;entryX=-0.012;entryY=0.159;entryDx=0;entryDy=0;entryPerimeter=0;" parent="1" source="29" target="18" edge="1">
          <mxGeometry width="160" relative="1" as="geometry">
            <mxPoint x="740" y="140" as="sourcePoint" />
            <mxPoint x="900" y="140" as="targetPoint" />
          </mxGeometry>
        </mxCell>
        <mxCell id="VKXGssWcHvbLUp1OGxKl-61" value="Grupo" style="swimlane;fontStyle=1;align=center;verticalAlign=top;childLayout=stackLayout;horizontal=1;startSize=26;horizontalStack=0;resizeParent=1;resizeParentMax=0;resizeLast=0;collapsible=1;marginBottom=0;whiteSpace=wrap;html=1;" parent="1" vertex="1">
          <mxGeometry x="934" y="400" width="220" height="180" as="geometry" />
        </mxCell>
        <mxCell id="VKXGssWcHvbLUp1OGxKl-62" value="- nome: String&lt;div&gt;- membros: ArrayList&amp;lt;User&amp;gt;&lt;/div&gt;&lt;div&gt;- &amp;lt;&amp;lt;constant&amp;gt;&amp;gt; GROUPID: int&lt;/div&gt;" style="text;strokeColor=none;fillColor=none;align=left;verticalAlign=top;spacingLeft=4;spacingRight=4;overflow=hidden;rotatable=0;points=[[0,0.5],[1,0.5]];portConstraint=eastwest;whiteSpace=wrap;html=1;" parent="VKXGssWcHvbLUp1OGxKl-61" vertex="1">
          <mxGeometry y="26" width="220" height="54" as="geometry" />
        </mxCell>
        <mxCell id="VKXGssWcHvbLUp1OGxKl-63" value="" style="line;strokeWidth=1;fillColor=none;align=left;verticalAlign=middle;spacingTop=-1;spacingLeft=3;spacingRight=3;rotatable=0;labelPosition=right;points=[];portConstraint=eastwest;strokeColor=inherit;" parent="VKXGssWcHvbLUp1OGxKl-61" vertex="1">
          <mxGeometry y="80" width="220" height="10" as="geometry" />
        </mxCell>
        <mxCell id="VKXGssWcHvbLUp1OGxKl-67" value="+ entrarNoGrupo(): void&lt;br&gt;+ sairDoGrupo(): void&lt;div&gt;+ mandarMensagem(): void&lt;div&gt;+ apagarMensagemParaTodos(): void&lt;/div&gt;&lt;div&gt;+ apagarMensagemParaMim(): void&lt;/div&gt;&lt;/div&gt;" style="text;whiteSpace=wrap;html=1;" parent="VKXGssWcHvbLUp1OGxKl-61" vertex="1">
          <mxGeometry y="90" width="220" height="90" as="geometry" />
        </mxCell>
        <mxCell id="VKXGssWcHvbLUp1OGxKl-65" value="" style="endArrow=diamondThin;endFill=1;endSize=24;html=1;rounded=0;entryX=1.019;entryY=0.103;entryDx=0;entryDy=0;entryPerimeter=0;exitX=0;exitY=0.25;exitDx=0;exitDy=0;" parent="1" source="VKXGssWcHvbLUp1OGxKl-61" target="31" edge="1">
          <mxGeometry width="160" relative="1" as="geometry">
            <mxPoint x="1068.08" y="325.5460000000001" as="sourcePoint" />
            <mxPoint x="755.9959999999999" y="249.99908857142833" as="targetPoint" />
          </mxGeometry>
        </mxCell>
        <mxCell id="VKXGssWcHvbLUp1OGxKl-68" value="DirectMessage" style="swimlane;fontStyle=1;align=center;verticalAlign=top;childLayout=stackLayout;horizontal=1;startSize=26;horizontalStack=0;resizeParent=1;resizeParentMax=0;resizeLast=0;collapsible=1;marginBottom=0;whiteSpace=wrap;html=1;" parent="1" vertex="1">
          <mxGeometry x="250" y="40" width="220" height="140" as="geometry" />
        </mxCell>
        <mxCell id="VKXGssWcHvbLUp1OGxKl-69" value="- mensagens: ArrayList&amp;lt;String&amp;gt;&lt;div&gt;- user: User&lt;/div&gt;" style="text;strokeColor=none;fillColor=none;align=left;verticalAlign=top;spacingLeft=4;spacingRight=4;overflow=hidden;rotatable=0;points=[[0,0.5],[1,0.5]];portConstraint=eastwest;whiteSpace=wrap;html=1;" parent="VKXGssWcHvbLUp1OGxKl-68" vertex="1">
          <mxGeometry y="26" width="220" height="44" as="geometry" />
        </mxCell>
        <mxCell id="VKXGssWcHvbLUp1OGxKl-70" value="" style="line;strokeWidth=1;fillColor=none;align=left;verticalAlign=middle;spacingTop=-1;spacingLeft=3;spacingRight=3;rotatable=0;labelPosition=right;points=[];portConstraint=eastwest;strokeColor=inherit;" parent="VKXGssWcHvbLUp1OGxKl-68" vertex="1">
          <mxGeometry y="70" width="220" height="8" as="geometry" />
        </mxCell>
        <mxCell id="VKXGssWcHvbLUp1OGxKl-71" value="+ mandarMensagem(): void&lt;div&gt;+ apagarMensagemParaTodos(): void&lt;/div&gt;&lt;div&gt;+ apagarMensagemParaMim(): void&lt;/div&gt;" style="text;strokeColor=none;fillColor=none;align=left;verticalAlign=top;spacingLeft=4;spacingRight=4;overflow=hidden;rotatable=0;points=[[0,0.5],[1,0.5]];portConstraint=eastwest;whiteSpace=wrap;html=1;" parent="VKXGssWcHvbLUp1OGxKl-68" vertex="1">
          <mxGeometry y="78" width="220" height="62" as="geometry" />
        </mxCell>
        <mxCell id="VKXGssWcHvbLUp1OGxKl-72" value="" style="endArrow=diamondThin;endFill=1;endSize=24;html=1;rounded=0;entryX=0.5;entryY=0;entryDx=0;entryDy=0;exitX=0.509;exitY=1.058;exitDx=0;exitDy=0;exitPerimeter=0;" parent="1" source="VKXGssWcHvbLUp1OGxKl-71" target="2" edge="1">
          <mxGeometry width="160" relative="1" as="geometry">
            <mxPoint x="560" y="370" as="sourcePoint" />
            <mxPoint x="720" y="370" as="targetPoint" />
          </mxGeometry>
        </mxCell>
        <mxCell id="VKXGssWcHvbLUp1OGxKl-73" value="0...*" style="text;html=1;align=center;verticalAlign=middle;resizable=0;points=[];autosize=1;strokeColor=none;fillColor=none;" parent="1" vertex="1">
          <mxGeometry x="360" y="180" width="40" height="30" as="geometry" />
        </mxCell>
        <mxCell id="VKXGssWcHvbLUp1OGxKl-74" value="" style="endArrow=diamondThin;endFill=1;endSize=24;html=1;rounded=0;fontSize=12;curved=1;exitX=1;exitY=0.5;exitDx=0;exitDy=0;entryX=-0.009;entryY=0.904;entryDx=0;entryDy=0;entryPerimeter=0;" parent="1" source="VKXGssWcHvbLUp1OGxKl-60" target="VKXGssWcHvbLUp1OGxKl-62" edge="1">
          <mxGeometry width="160" relative="1" as="geometry">
            <mxPoint x="590" y="430" as="sourcePoint" />
            <mxPoint x="669" y="432" as="targetPoint" />
          </mxGeometry>
        </mxCell>
        <mxCell id="VKXGssWcHvbLUp1OGxKl-75" value="0...*" style="text;html=1;align=center;verticalAlign=middle;resizable=0;points=[];autosize=1;strokeColor=none;fillColor=none;" parent="1" vertex="1">
          <mxGeometry x="900" y="390" width="40" height="30" as="geometry" />
        </mxCell>
        <mxCell id="VKXGssWcHvbLUp1OGxKl-76" value="0...*" style="text;html=1;align=center;verticalAlign=middle;resizable=0;points=[];autosize=1;strokeColor=none;fillColor=none;" parent="1" vertex="1">
          <mxGeometry x="490" y="380" width="40" height="30" as="geometry" />
        </mxCell>
      </root>
    </mxGraphModel>
  </diagram>
</mxfile>
